<svg width="10" height="12" viewBox="0 0 10 12" fill="none" xmlns="http://www.w3.org/2000/svg">
<path d="M8.85412 3.96967L5.58811 0.969631C5.51206 0.899641 5.42157 0.844308 5.32193 0.806879C5.12219 0.73104 4.89786 0.73104 4.69812 0.806879C4.59848 0.844308 4.50798 0.899641 4.43194 0.969631L1.16593 3.96967C1.08794 4.03885 1.02574 4.12161 0.982946 4.21311C0.940154 4.30462 0.917629 4.40304 0.916687 4.50262C0.915745 4.60221 0.936404 4.70097 0.977458 4.79314C1.01851 4.88531 1.07914 4.96905 1.1558 5.03947C1.23247 5.10989 1.32363 5.16558 1.42398 5.2033C1.52432 5.24101 1.63184 5.25998 1.74025 5.25912C1.84867 5.25825 1.95581 5.23756 2.05543 5.19826C2.15504 5.15895 2.24514 5.10181 2.32046 5.03018L4.19434 3.31041V10.5C4.19434 10.6989 4.28036 10.8897 4.43348 11.0303C4.58661 11.171 4.79429 11.25 5.01084 11.25C5.22739 11.25 5.43507 11.171 5.58819 11.0303C5.74132 10.8897 5.82734 10.6989 5.82734 10.5V3.31041L7.69958 5.03018C7.85358 5.1668 8.05983 5.24239 8.27391 5.24069C8.488 5.23898 8.69279 5.1601 8.84417 5.02104C8.99556 4.88198 9.08143 4.69387 9.08329 4.49722C9.08515 4.30057 9.00285 4.11112 8.85412 3.96967Z" fill="#F58A07"/>
</svg>
