<svg width="32" height="32" viewBox="0 0 32 32" fill="none" xmlns="http://www.w3.org/2000/svg">
<rect width="32" height="32" rx="16" transform="matrix(-1 0 0 1 32 0)" fill="#F58A07"/>
<path d="M9.33337 16.2285C9.33337 16.5449 9.5685 16.8064 9.87357 16.8478L9.95837 16.8535L22.4584 16.8535C22.8036 16.8535 23.0834 16.5737 23.0834 16.2285C23.0834 15.9121 22.8482 15.6506 22.5432 15.6092L22.4584 15.6035L9.95837 15.6035C9.6132 15.6035 9.33337 15.8833 9.33337 16.2285Z" fill="#DEE2E6"/>
<path d="M16.9759 20.8059C16.7313 21.0495 16.7304 21.4452 16.974 21.6898C17.1954 21.9122 17.5426 21.9331 17.7876 21.7521L17.8579 21.6917L22.8995 16.6717C23.1226 16.4497 23.1428 16.1012 22.9604 15.8562L22.8996 15.786L17.8579 10.7652C17.6133 10.5216 17.2176 10.5224 16.974 10.767C16.7526 10.9893 16.7331 11.3366 16.9152 11.5809L16.9758 11.6509L21.5725 16.2291L16.9759 20.8059Z" fill="#DEE2E6"/>
</svg>
