<svg width="10" height="10" viewBox="0 0 10 10" fill="none" xmlns="http://www.w3.org/2000/svg">
<path d="M5.00721 6.66659L5.00731 6.16659C4.97724 6.16658 4.9532 6.15499 4.9393 6.14177L4.93925 6.14172L2.60592 3.92404L2.60597 3.92398L2.59958 3.91812C2.59263 3.91174 2.58859 3.90552 2.58636 3.90057C2.58415 3.89569 2.58341 3.89147 2.58338 3.88792C2.58334 3.88437 2.58401 3.88021 2.58607 3.87543C2.58816 3.87057 2.59199 3.86442 2.59869 3.85806C2.60544 3.85164 2.61486 3.84528 2.62703 3.84055C2.63923 3.8358 2.65311 3.83314 2.66765 3.83326C2.68218 3.83338 2.69595 3.83627 2.70795 3.84117C2.71992 3.84605 2.72909 3.85249 2.73559 3.85889L2.73554 3.85895L2.74183 3.86493L4.66275 5.69064L5.00721 6.01802L5.35167 5.69064L7.26793 3.86935C7.28236 3.85693 7.30575 3.84665 7.33431 3.84688C7.364 3.84713 7.38766 3.85863 7.40139 3.87168C7.4143 3.88395 7.41665 3.89508 7.41671 3.90105C7.41676 3.90673 7.41483 3.91693 7.40384 3.92847L5.07517 6.14172L5.07511 6.14177C5.06121 6.15499 5.03717 6.16658 5.00711 6.16659L5.00721 6.66659ZM5.00721 6.66659C5.16191 6.66655 5.31025 6.60812 5.41962 6.50414L3.08629 3.50251C3.03248 3.44956 2.96811 3.40732 2.89694 3.37826C2.82578 3.34921 2.74923 3.33391 2.67178 3.33327C2.59432 3.33263 2.51751 3.34666 2.44582 3.37454C2.37413 3.40241 2.309 3.44358 2.25423 3.49564C2.19946 3.54769 2.15614 3.6096 2.12681 3.67773C2.09748 3.74587 2.08272 3.81887 2.0834 3.89249C2.08407 3.96611 2.10016 4.03886 2.13073 4.1065C2.1613 4.17414 2.20574 4.23532 2.26146 4.28646L4.59479 6.50414C4.70416 6.60812 4.85251 6.66655 5.00721 6.66659Z" fill="#F58A07" stroke="#F58A07"/>
</svg>
