<svg width="6" height="5" viewBox="0 0 6 5" fill="none" xmlns="http://www.w3.org/2000/svg">
<path d="M3.00721 4.16683C2.85251 4.1668 2.70416 4.10837 2.59479 4.00438L0.261459 1.7867C0.205745 1.73556 0.161305 1.67438 0.130733 1.60674C0.100161 1.5391 0.0840691 1.46635 0.083396 1.39273C0.082723 1.31912 0.0974822 1.24611 0.126813 1.17798C0.156143 1.10984 0.199458 1.04794 0.254228 0.995882C0.308999 0.943826 0.374129 0.902659 0.445819 0.874782C0.517508 0.846906 0.594322 0.832877 0.671776 0.833517C0.749231 0.834157 0.825776 0.849451 0.896945 0.878508C0.968114 0.907564 1.03248 0.949802 1.08629 1.00275L3.00721 2.82846L4.92812 1.00275C5.03814 0.901762 5.18549 0.84588 5.33844 0.847143C5.49139 0.848406 5.6377 0.906714 5.74585 1.00951C5.85401 1.1123 5.91536 1.25136 5.91669 1.39672C5.91801 1.54209 5.85922 1.68214 5.75296 1.7867L3.41962 4.00438C3.31025 4.10837 3.16191 4.1668 3.00721 4.16683Z" fill="#CED4DA"/>
</svg>
