<svg width="18" height="18" viewBox="0 0 18 18" fill="currentColor" xmlns="http://www.w3.org/2000/svg">
<path d="M1.05882 11C0.473294 11 0 11.448 0 12V17C0 17.552 0.473294 18 1.05882 18C1.64435 18 2.11765 17.552 2.11765 17V12C2.11765 11.448 1.64435 11 1.05882 11Z" fill="#F58A07"/>
<path d="M6.35294 6.99994C5.76741 6.99994 5.29412 7.44795 5.29412 7.99995V17C5.29412 17.552 5.76741 18 6.35294 18C6.93847 18 7.41177 17.552 7.41177 17V7.99995C7.41177 7.44795 6.93847 6.99994 6.35294 6.99994Z" fill="#F58A07"/>
<path d="M11.6471 11C11.0615 11 10.5882 11.448 10.5882 12V17C10.5882 17.552 11.0615 18 11.6471 18C12.2326 18 12.7059 17.552 12.7059 17V12C12.7059 11.448 12.2326 11 11.6471 11Z" fill="#F58A07"/>
<path d="M16.9412 6.99994C16.3556 6.99994 15.8824 7.44795 15.8824 7.99995V17C15.8824 17.552 16.3556 18 16.9412 18C17.5267 18 18 17.552 18 17V7.99995C18 7.44795 17.5267 6.99994 16.9412 6.99994Z" fill="#F58A07"/>
<path d="M1.05776 7.99995C1.36165 7.99995 1.66235 7.87695 1.87306 7.63995L6.35294 2.56192L10.8328 7.63995C11.2362 8.09595 12.0568 8.09595 12.4602 7.63995L17.7544 1.63992C18.1292 1.21592 18.0678 0.584912 17.6188 0.23191C17.1678 -0.122091 16.5018 -0.0640914 16.1269 0.359911L11.6471 5.43794L7.16718 0.359911C6.76376 -0.0960915 5.94318 -0.0960915 5.53977 0.359911L0.245647 6.35994C-0.129176 6.78394 -0.0677649 7.41495 0.381176 7.76795C0.579176 7.92395 0.818471 7.99995 1.05776 7.99995Z" fill="#F58A07"/>
</svg>
