<svg width="107" height="31" viewBox="0 0 107 31" fill="none" xmlns="http://www.w3.org/2000/svg">
<g clip-path="url(#clip0_84_10711)">
<path d="M39.1228 6.49883V6.00172H38.9311L38.7881 6.12862L39.1228 6.49883ZM44.052 6.49883L44.3867 6.12862L44.2438 6.00172H44.052V6.49883ZM45.8256 8.07445H46.3273V7.8524L46.1603 7.70421L45.8256 8.07445ZM45.8256 11.6367L45.5599 12.0582L46.3273 12.534V11.6367H45.8256ZM43.027 9.90125H42.5257V10.1767L42.7613 10.3227L43.027 9.90125ZM43.027 8.8965H43.5287V8.39938H43.027V8.8965ZM40.1478 8.8965V8.39938H39.6465V8.8965H40.1478ZM40.1478 11.4312H39.6465V11.6726L39.8379 11.8219L40.1478 11.4312ZM45.8256 15.8612H46.3273V15.6198L46.1359 15.4705L45.8256 15.8612ZM45.8256 21.2959L46.1603 21.6662L46.3273 21.518V21.2959H45.8256ZM44.052 22.8716V23.3687H44.2438L44.3867 23.2418L44.052 22.8716ZM39.1228 22.8716L38.7881 23.2418L38.9311 23.3687H39.1228V22.8716ZM37.3492 21.2959H36.8479V21.518L37.0145 21.6662L37.3492 21.2959ZM37.3492 17.7337L37.6153 17.3122L36.8479 16.8363V17.7337H37.3492ZM40.1478 19.4691H40.6491V19.1937L40.4139 19.0477L40.1478 19.4691ZM40.1478 20.4739H39.6465V20.971H40.1478V20.4739ZM43.027 20.4739V20.971H43.5287V20.4739H43.027ZM43.027 17.0943H43.5287V16.8518L43.3359 16.7025L43.027 17.0943ZM37.3492 12.6986H36.8479V12.9411L37.0407 13.0903L37.3492 12.6986ZM37.3492 8.07445L37.0145 7.70421L36.8479 7.8524V8.07445H37.3492ZM39.1228 6.99594H44.052V6.00172H39.1228V6.99594ZM43.7173 6.86904L45.4909 8.44467L46.1603 7.70421L44.3867 6.12862L43.7173 6.86904ZM45.3243 8.07445V11.6367H46.3273V8.07445H45.3243ZM46.0917 11.2152L43.2931 9.47979L42.7613 10.3227L45.5599 12.0582L46.0917 11.2152ZM43.5287 9.90125V8.8965H42.5257V9.90125H43.5287ZM43.027 8.39938H40.1478V9.39361H43.027V8.39938ZM39.6465 8.8965V11.4312H40.6491V8.8965H39.6465ZM39.8379 11.8219L45.5157 16.2519L46.1359 15.4705L40.4581 11.0405L39.8379 11.8219ZM45.3243 15.8612V21.2959H46.3273V15.8612H45.3243ZM45.4909 20.9257L43.7173 22.5014L44.3867 23.2418L46.1603 21.6662L45.4909 20.9257ZM44.052 22.3745H39.1228V23.3687H44.052V22.3745ZM39.4575 22.5014L37.6839 20.9257L37.0145 21.6662L38.7881 23.2418L39.4575 22.5014ZM37.8506 21.2959V17.7337H36.8479V21.2959H37.8506ZM37.0832 18.1551L39.8821 19.8906L40.4139 19.0477L37.6153 17.3122L37.0832 18.1551ZM39.6465 19.4691V20.4739H40.6491V19.4691H39.6465ZM40.1478 20.971H43.027V19.9767H40.1478V20.971ZM43.5287 20.4739V17.0943H42.5257V20.4739H43.5287ZM43.3359 16.7025L37.6578 12.3067L37.0407 13.0903L42.7185 17.4861L43.3359 16.7025ZM37.8506 12.6986V8.07445H36.8479V12.6986H37.8506ZM37.6839 8.44467L39.4575 6.86904L38.7881 6.12862L37.0145 7.70421L37.6839 8.44467ZM47.5532 6.49883L47.555 6.00172L47.0519 6V6.49883H47.5532ZM54.2447 6.52166L54.579 6.15131L54.4371 6.02518L54.2464 6.02455L54.2447 6.52166ZM56.0066 8.08585H56.5083V7.86369L56.3413 7.7155L56.0066 8.08585ZM56.0066 13.9545L56.3413 14.3248L56.5083 14.1766V13.9545H56.0066ZM54.2447 15.5187V16.0158H54.4364L54.579 15.889L54.2447 15.5187ZM50.6285 15.5187L50.257 15.1846L49.4963 16.0158H50.6285V15.5187ZM53.2197 12.6871L53.5908 13.0212L53.721 12.879V12.6871H53.2197ZM53.2197 8.90793H53.721V8.41082H53.2197V8.90793ZM50.3405 8.90793V8.41082H49.8388V8.90793H50.3405ZM50.3405 22.8716V23.3687H50.8418V22.8716H50.3405ZM47.5532 22.8716H47.0519V23.3687H47.5532V22.8716ZM47.5514 6.99594L54.2429 7.01878L54.2464 6.02455L47.555 6.00172L47.5514 6.99594ZM53.91 6.89202L55.6722 8.45621L56.3413 7.7155L54.579 6.15131L53.91 6.89202ZM55.5053 8.08585V13.9545H56.5083V8.08585H55.5053ZM55.6722 13.5841L53.91 15.1483L54.579 15.889L56.3413 14.3248L55.6722 13.5841ZM54.2447 15.0215H50.6285V16.0158H54.2447V15.0215ZM50.9996 15.8527L53.5908 13.0212L52.8482 12.3531L50.257 15.1846L50.9996 15.8527ZM53.721 12.6871V8.90793H52.718V12.6871H53.721ZM53.2197 8.41082H50.3405V9.40504H53.2197V8.41082ZM49.8388 8.90793V22.8716H50.8418V8.90793H49.8388ZM50.3405 22.3745H47.5532V23.3687H50.3405V22.3745ZM48.0546 22.8716V6.49883H47.0519V22.8716H48.0546ZM59.5078 6.49883V6.00172H59.316L59.1731 6.12862L59.5078 6.49883ZM64.4373 6.49883L64.7717 6.12862L64.6291 6.00172H64.4373V6.49883ZM66.2109 8.07445H66.7123V7.8524L66.5453 7.70421L66.2109 8.07445ZM66.2109 21.2959L66.5453 21.6662L66.7123 21.518V21.2959H66.2109ZM64.4373 22.8716V23.3687H64.6291L64.7717 23.2418L64.4373 22.8716ZM59.5078 22.8716L59.1731 23.2418L59.316 23.3687H59.5078V22.8716ZM57.7342 21.2959H57.2329V21.518L57.3995 21.6662L57.7342 21.2959ZM57.7342 8.07445L57.3995 7.70421L57.2329 7.8524V8.07445H57.7342ZM60.5328 8.8965V8.39938H60.0314V8.8965H60.5328ZM60.5328 20.4739H60.0314V20.971H60.5328V20.4739ZM63.412 20.4739V20.971H63.9137V20.4739H63.412ZM63.412 8.8965H63.9137V8.39938H63.412V8.8965ZM59.5078 6.99594H64.4373V6.00172H59.5078V6.99594ZM64.1026 6.86904L65.8762 8.44467L66.5453 7.70421L64.7717 6.12862L64.1026 6.86904ZM65.7092 8.07445V21.2959H66.7123V8.07445H65.7092ZM65.8762 20.9257L64.1026 22.5014L64.7717 23.2418L66.5453 21.6662L65.8762 20.9257ZM64.4373 22.3745H59.5078V23.3687H64.4373V22.3745ZM59.8425 22.5014L58.0689 20.9257L57.3995 21.6662L59.1731 23.2418L59.8425 22.5014ZM58.2359 21.2959V8.07445H57.2329V21.2959H58.2359ZM58.0689 8.44467L59.8425 6.86904L59.1731 6.12862L57.3995 7.70421L58.0689 8.44467ZM60.0314 8.8965V20.4739H61.0345V8.8965H60.0314ZM60.5328 20.971H63.412V19.9767H60.5328V20.971ZM63.9137 20.4739V8.8965H62.9107V20.4739H63.9137ZM63.412 8.39938H60.5328V9.39361H63.412V8.39938ZM70.1381 6.49883V6.00172H69.912L69.7624 6.16952L70.1381 6.49883ZM76.7259 6.49883L77.2272 6.50111L77.2297 6.00172H76.7259V6.49883ZM76.7142 8.965V9.46215H77.2134L77.2156 8.96731L76.7142 8.965ZM74.0423 8.965V8.46789H73.541V8.965H74.0423ZM74.0423 22.8716V23.3687H74.5437V22.8716H74.0423ZM71.2897 22.8716H70.7884V23.3687H71.2897V22.8716ZM71.2897 8.965H71.7911V8.46789H71.2897V8.965ZM67.9382 8.965L67.5628 8.63572L66.8255 9.46215H67.9382V8.965ZM70.1381 6.99594H76.7259V6.00172H70.1381V6.99594ZM76.2242 6.49652L76.2129 8.96272L77.2156 8.96731L77.2272 6.50111L76.2242 6.49652ZM76.7142 8.46789H74.0423V9.46215H76.7142V8.46789ZM73.541 8.965V22.8716H74.5437V8.965H73.541ZM74.0423 22.3745H71.2897V23.3687H74.0423V22.3745ZM71.7911 22.8716V8.965H70.7884V22.8716H71.7911ZM71.2897 8.46789H67.9382V9.46215H71.2897V8.46789ZM68.3139 9.29431L70.5139 6.82815L69.7624 6.16952L67.5628 8.63572L68.3139 9.29431ZM80.6644 6.49883V6.00172H80.4387L80.289 6.16952L80.6644 6.49883ZM87.2522 6.49883L87.7539 6.50111L87.756 6.00172H87.2522V6.49883ZM87.2409 8.965V9.46215H87.7397L87.7422 8.96731L87.2409 8.965ZM84.569 8.965V8.46789H84.0673V8.965H84.569ZM84.569 22.8716V23.3687H85.0703V22.8716H84.569ZM81.8164 22.8716H81.3147V23.3687H81.8164V22.8716ZM81.8164 8.965H82.3177V8.46789H81.8164V8.965ZM78.4648 8.965L78.0891 8.63572L77.3521 9.46215H78.4648V8.965ZM80.6644 6.99594H87.2522V6.00172H80.6644V6.99594ZM86.7509 6.49652L86.7392 8.96272L87.7422 8.96731L87.7539 6.50111L86.7509 6.49652ZM87.2409 8.46789H84.569V9.46215H87.2409V8.46789ZM84.0673 8.965V22.8716H85.0703V8.965H84.0673ZM84.569 22.3745H81.8164V23.3687H84.569V22.3745ZM82.3177 22.8716V8.965H81.3147V22.8716H82.3177ZM81.8164 8.46789H78.4648V9.46215H81.8164V8.46789ZM78.8406 9.29431L81.0401 6.82815L80.289 6.16952L78.0891 8.63572L78.8406 9.29431ZM88.9915 6.49883V6.00172H88.4898V6.49883H88.9915ZM95.9822 6.49883H96.4836V6.00172H95.9822V6.49883ZM95.9822 8.965V9.46215H96.4836V8.965H95.9822ZM91.7554 8.965V8.46789H91.254V8.965H91.7554ZM91.7554 13.3037H91.254V13.8008H91.7554V13.3037ZM95.4292 13.3037L95.8018 13.6364L96.5561 12.8065H95.4292V13.3037ZM93.2297 15.7242V16.2213H93.4529L93.6022 16.0569L93.2297 15.7242ZM91.7554 15.7242V15.2271H91.254V15.7242H91.7554ZM91.7554 20.4054H91.254V20.9025H91.7554V20.4054ZM96.0512 20.4054H96.5526V19.9082H96.0512V20.4054ZM96.0512 22.8716V23.3687H96.5526V22.8716H96.0512ZM88.9915 22.8716H88.4898V23.3687H88.9915V22.8716ZM88.9915 6.99594H95.9822V6.00172H88.9915V6.99594ZM95.4805 6.49883V8.965H96.4836V6.49883H95.4805ZM95.9822 8.46789H91.7554V9.46215H95.9822V8.46789ZM91.254 8.965V13.3037H92.2567V8.965H91.254ZM91.7554 13.8008H95.4292V12.8065H91.7554V13.8008ZM95.0567 12.9709L92.8571 15.3914L93.6022 16.0569L95.8018 13.6364L95.0567 12.9709ZM93.2297 15.2271H91.7554V16.2213H93.2297V15.2271ZM91.254 15.7242V20.4054H92.2567V15.7242H91.254ZM91.7554 20.9025H96.0512V19.9082H91.7554V20.9025ZM95.5499 20.4054V22.8716H96.5526V20.4054H95.5499ZM96.0512 22.3745H88.9915V23.3687H96.0512V22.3745ZM89.4928 22.8716V6.49883H88.4898V22.8716H89.4928ZM97.7902 6.49883L97.7919 6.00172L97.2888 6V6.49883H97.7902ZM104.482 6.52166L104.816 6.15131L104.674 6.02518L104.483 6.02455L104.482 6.52166ZM106.244 8.08585H106.745V7.86369L106.578 7.7155L106.244 8.08585ZM106.244 13.2352L106.579 13.605L106.745 13.4569V13.2352H106.244ZM103.756 15.4502L103.421 15.0803L103.176 15.2981L103.28 15.6074L103.756 15.4502ZM106.244 22.8487V23.3458H106.939L106.719 22.6915L106.244 22.8487ZM103.468 22.8487L102.992 23.0061L103.107 23.3458H103.468V22.8487ZM100.727 14.708L100.384 14.3452L100.15 14.5631L100.252 14.8654L100.727 14.708ZM103.457 12.1733L103.799 12.5362L103.958 12.3888V12.1733H103.457ZM103.457 8.90793H103.958V8.41082H103.457V8.90793ZM100.577 8.90793V8.41082H100.076V8.90793H100.577ZM100.577 22.8716V23.3687H101.079V22.8716H100.577ZM97.7902 22.8716H97.2888V23.3687H97.7902V22.8716ZM97.7887 6.99594L104.48 7.01878L104.483 6.02455L97.7919 6.00172L97.7887 6.99594ZM104.147 6.89202L105.909 8.45621L106.578 7.7155L104.816 6.15131L104.147 6.89202ZM105.742 8.08585V13.2352H106.745V8.08585H105.742ZM105.909 12.8653L103.421 15.0803L104.091 15.82L106.579 13.605L105.909 12.8653ZM103.28 15.6074L105.768 23.0059L106.719 22.6915L104.232 15.293L103.28 15.6074ZM106.244 22.3516H103.468V23.3458H106.244V22.3516ZM103.944 22.6913L101.203 14.5506L100.252 14.8654L102.992 23.0061L103.944 22.6913ZM101.07 15.0708L103.799 12.5362L103.114 11.8105L100.384 14.3452L101.07 15.0708ZM103.958 12.1733V8.90793H102.955V12.1733H103.958ZM103.457 8.41082H100.577V9.40504H103.457V8.41082ZM100.076 8.90793V22.8716H101.079V8.90793H100.076ZM100.577 22.3745H97.7902V23.3687H100.577V22.3745ZM98.2919 22.8716V6.49883H97.2888V22.8716H98.2919Z" fill="#F58A07"/>
<rect y="-0.258789" width="31.2258" height="30.9647" rx="7" fill="#F58A07"/>
<path d="M14.8756 4.34634C15.4415 4.02153 16.1515 4.20519 16.7535 4.33781C18.6433 4.89054 20.492 5.57583 22.3202 6.30032C22.712 6.45132 23.1224 6.63246 23.4519 6.89993C23.8547 7.2269 24.0353 7.75699 24.0015 8.2747C23.9674 8.79582 23.8075 9.31267 23.663 9.81203C23.3749 10.7293 23.0662 11.6404 22.7501 12.5491C22.2035 14.1203 22.3596 15.8027 22.6429 17.4419C22.6957 17.7473 22.7291 18.0563 22.7369 18.3695C22.7369 20.4374 21.9291 22.5155 20.432 23.9729C18.6125 25.8589 15.7708 26.6837 13.2121 26.0953C10.8884 25.597 8.81845 23.9967 7.8255 21.8472C7.16354 20.451 7.00574 18.8762 7.16524 17.3542C7.48424 15.0193 8.98991 12.9088 11.0496 11.7524C11.3394 11.5654 11.7218 11.4276 11.8385 11.0739C12.6187 9.05529 13.2104 6.95674 14.2188 5.03168C14.368 4.74765 14.5978 4.5113 14.8756 4.34634ZM14.9076 5.29943C14.5613 5.63526 15.0917 6.04538 15.5171 5.818C16.0351 5.54114 15.7562 4.86015 15.2183 5.09595C15.1004 5.14765 14.9941 5.2155 14.9076 5.29943ZM15.6062 6.94826C15.3481 7.46797 15.1126 7.99917 14.898 8.53892C14.456 9.65103 15.3524 10.6486 16.5065 10.9651C16.807 11.0146 17.0996 11.0884 17.3845 11.1825C19.037 11.7284 21.0645 11.2758 21.6102 9.6233C21.8245 8.94813 21.8503 8.05531 21.1454 7.65737C19.8832 7.01796 18.5095 6.61154 17.1496 6.23057C16.5271 6.03673 15.8737 6.37856 15.6062 6.94826ZM10.9501 13.0381C9.65877 13.9989 8.71384 15.4529 8.39655 17.026C8.14207 18.2152 9.87253 18.5227 10.6375 17.5773C11.0916 17.0162 11.4436 16.3422 11.8247 15.7591C12.2792 14.9359 13.1761 14.4649 13.5963 13.6214C13.7815 13.2575 13.7335 12.7201 13.3202 12.533C12.5261 12.1045 11.6446 12.6469 10.9501 13.0381Z" fill="#1E1E1E"/>
<path d="M15.5172 5.81802C15.0918 6.0454 14.5614 5.63528 14.9076 5.29944C14.9942 5.21552 15.1005 5.14767 15.2184 5.09597C15.7563 4.86017 16.0352 5.54115 15.5172 5.81802Z" fill="#1E1E1E"/>
</g>
<defs>
<clipPath id="clip0_84_10711">
<rect width="107" height="31" fill="white"/>
</clipPath>
</defs>
</svg>
