<svg id="Capa_1" data-name="Capa 1" xmlns="http://www.w3.org/2000/svg" viewBox="0 0 25.74 12.65"><defs><style>.cls-1{fill:#ced4da;}</style></defs><path class="cls-1" d="M25.06,3.17H23.31V2.51A1.52,1.52,0,0,0,21.79,1H18.73a1.52,1.52,0,0,0-1.52,1.52V6.44h-7V2.51A1.52,1.52,0,0,0,8.7,1H5.64A1.52,1.52,0,0,0,4.12,2.51v.66H2.37A1.53,1.53,0,0,0,.84,4.69V9.93a1.54,1.54,0,0,0,1.53,1.53H4.12v.65a1.53,1.53,0,0,0,1.52,1.53H8.7a1.53,1.53,0,0,0,1.52-1.53V8.18h7v3.93a1.53,1.53,0,0,0,1.52,1.53h3.06a1.53,1.53,0,0,0,1.52-1.53v-.65h1.75a1.53,1.53,0,0,0,1.52-1.53V4.69A1.52,1.52,0,0,0,25.06,3.17Z" transform="translate(-0.84 -0.99)"/></svg>