<svg width="16" height="16" viewBox="0 0 16 16" fill="none" xmlns="http://www.w3.org/2000/svg">
<path d="M9.12385 9.94822L9.13489 9.94034L9.1455 9.93186L14.1667 5.91868V11.4223C14.1667 11.6081 14.0879 11.794 13.935 11.9367C13.7809 12.0805 13.565 12.1667 13.3333 12.1667H2.66666C2.43494 12.1667 2.21907 12.0805 2.06501 11.9367C1.91212 11.794 1.83333 11.6081 1.83333 11.4223V5.91843L6.88723 9.95619L6.89942 9.96592L6.91219 9.97488C7.22628 10.1952 7.60452 10.3114 7.98961 10.3107L7.9913 10.3107C8.39731 10.3086 8.79498 10.183 9.12385 9.94822ZM2.87569 3.83337H13.1243L8 7.92869L2.87569 3.83337Z" fill="#F58A07" stroke="#F58A07"/>
</svg>
