<svg width="23" height="23" viewBox="0 0 23 23" fill="none" xmlns="http://www.w3.org/2000/svg">
<path fill-rule="evenodd" clip-rule="evenodd" d="M14 4.5C14 2.01472 16.0147 0 18.5 0C20.9853 0 23 2.01472 23 4.5C23 6.98528 20.9853 9 18.5 9C17.6195 9 16.798 8.74709 16.1043 8.30995L13.4142 11L16.4806 14.0664C16.8031 14.3889 17.2981 14.4491 17.685 14.2269L17.7877 14.1592L20.4 12.2C20.8418 11.8686 21.4686 11.9582 21.8 12.4C22.1059 12.8078 22.0531 13.3733 21.6957 13.7185L21.6 13.8L18.9877 15.7592C17.8452 16.6161 16.2665 16.5447 15.2075 15.6129L15.0664 15.4806L12 12.4142L1.70711 22.7071C1.31658 23.0976 0.683418 23.0976 0.292893 22.7071C-0.0675907 22.3466 -0.0953203 21.7794 0.209705 21.3871L0.292893 21.2929L11.2929 10.2929L14.69 6.89574C14.2529 6.20201 14 5.38054 14 4.5ZM21 4.5C21 3.11929 19.8807 2 18.5 2C17.1193 2 16 3.11929 16 4.5C16 5.88071 17.1193 7 18.5 7C19.8807 7 21 5.88071 21 4.5ZM5.65889 5.3045C6.61732 5.06489 7.62773 5.31319 8.36426 5.95914L8.50782 6.09361L9.70711 7.29289C10.0976 7.68342 10.0976 8.31658 9.70711 8.70711C9.34662 9.06759 8.77939 9.09532 8.3871 8.7903L8.29289 8.70711L7.09361 7.50782C6.87627 7.29049 6.57311 7.18687 6.27242 7.22144L6.14396 7.24479L3.24254 7.97014C2.70674 8.10409 2.16381 7.77833 2.02986 7.24254C1.90548 6.74501 2.17748 6.24133 2.64596 6.06467L2.75746 6.02986L5.65889 5.3045ZM12.6129 16.2097C12.2206 15.9047 11.6534 15.9324 11.2929 16.2929C10.9024 16.6834 10.9024 17.3166 11.2929 17.7071L12.0046 18.4189L12.0878 18.5131C12.3929 18.9054 12.3651 19.4726 12.0046 19.8331C11.8949 19.9429 11.761 20.0256 11.6138 20.0747L8.68377 21.0513L8.57526 21.0946C8.12171 21.3067 7.88914 21.8297 8.05132 22.3162C8.22596 22.8402 8.79228 23.1233 9.31623 22.9487L12.2462 21.972L12.4636 21.8901C12.8199 21.7398 13.1444 21.5217 13.4189 21.2473C14.5904 20.0757 14.5904 18.1762 13.4189 17.0046L12.7071 16.2929L12.6129 16.2097Z" fill="#F8F9FA"/>
</svg>
