<svg width="20" height="18" viewBox="0 0 20 18" fill="none" xmlns="http://www.w3.org/2000/svg">
<path d="M1 4.13467H2.424C2.63173 4.76986 3.04175 5.32428 3.59472 5.71772C4.1477 6.11115 4.81497 6.32321 5.5 6.32321C6.18503 6.32321 6.8523 6.11115 7.40528 5.71772C7.95825 5.32428 8.36827 4.76986 8.576 4.13467H19C19.2652 4.13467 19.5196 4.03215 19.7071 3.84967C19.8946 3.66718 20 3.41968 20 3.16161C20 2.90353 19.8946 2.65603 19.7071 2.47355C19.5196 2.29106 19.2652 2.18854 19 2.18854H8.576C8.36827 1.55335 7.95825 0.998933 7.40528 0.605495C6.8523 0.212058 6.18503 0 5.5 0C4.81497 0 4.1477 0.212058 3.59472 0.605495C3.04175 0.998933 2.63173 1.55335 2.424 2.18854H1C0.734784 2.18854 0.48043 2.29106 0.292893 2.47355C0.105357 2.65603 0 2.90353 0 3.16161C0 3.41968 0.105357 3.66718 0.292893 3.84967C0.48043 4.03215 0.734784 4.13467 1 4.13467ZM5.5 1.94527C5.74723 1.94527 5.9889 2.01661 6.19446 2.15026C6.40002 2.28392 6.56024 2.47388 6.65485 2.69614C6.74946 2.91839 6.77421 3.16296 6.72598 3.3989C6.67775 3.63485 6.5587 3.85158 6.38388 4.02168C6.20907 4.19179 5.98634 4.30763 5.74386 4.35457C5.50139 4.4015 5.25005 4.37741 5.02165 4.28535C4.79324 4.19329 4.59801 4.03739 4.46066 3.83736C4.32331 3.63734 4.25 3.40217 4.25 3.16161C4.25053 2.83917 4.38239 2.53009 4.6167 2.3021C4.85101 2.0741 5.16864 1.94579 5.5 1.94527Z" fill="#DEE2E6"/>
<path d="M19 13.8653H8.576C8.36827 13.2301 7.95825 12.6757 7.40528 12.2823C6.8523 11.8888 6.18503 11.6768 5.5 11.6768C4.81497 11.6768 4.1477 11.8888 3.59472 12.2823C3.04175 12.6757 2.63173 13.2301 2.424 13.8653H1C0.734784 13.8653 0.48043 13.9678 0.292893 14.1503C0.105357 14.3328 0 14.5803 0 14.8384C0 15.0965 0.105357 15.344 0.292893 15.5265C0.48043 15.7089 0.734784 15.8115 1 15.8115H2.424C2.63173 16.4467 3.04175 17.0011 3.59472 17.3945C4.1477 17.7879 4.81497 18 5.5 18C6.18503 18 6.8523 17.7879 7.40528 17.3945C7.95825 17.0011 8.36827 16.4467 8.576 15.8115H19C19.2652 15.8115 19.5196 15.7089 19.7071 15.5265C19.8946 15.344 20 15.0965 20 14.8384C20 14.5803 19.8946 14.3328 19.7071 14.1503C19.5196 13.9678 19.2652 13.8653 19 13.8653ZM5.5 16.0547C5.25277 16.0547 5.0111 15.9834 4.80554 15.8497C4.59998 15.7161 4.43976 15.5261 4.34515 15.3039C4.25054 15.0816 4.22579 14.837 4.27402 14.6011C4.32225 14.3652 4.4413 14.1484 4.61612 13.9783C4.79093 13.8082 5.01366 13.6924 5.25614 13.6454C5.49861 13.5985 5.74995 13.6226 5.97835 13.7146C6.20676 13.8067 6.40199 13.9626 6.53934 14.1626C6.67669 14.3627 6.75 14.5978 6.75 14.8384C6.74947 15.1608 6.6176 15.4699 6.3833 15.6979C6.14899 15.9259 5.83136 16.0542 5.5 16.0547Z" fill="#DEE2E6"/>
<path d="M19 8.02693H17.576C17.3683 7.39174 16.9583 6.83733 16.4053 6.44389C15.8523 6.05045 15.185 5.83839 14.5 5.83839C13.815 5.83839 13.1477 6.05045 12.5947 6.44389C12.0417 6.83733 11.6317 7.39174 11.424 8.02693H1C0.734784 8.02693 0.48043 8.12945 0.292893 8.31194C0.105357 8.49442 0 8.74193 0 9C0 9.25807 0.105357 9.50558 0.292893 9.68806C0.48043 9.87055 0.734784 9.97307 1 9.97307H11.424C11.6317 10.6083 12.0417 11.1627 12.5947 11.5561C13.1477 11.9495 13.815 12.1616 14.5 12.1616C15.185 12.1616 15.8523 11.9495 16.4053 11.5561C16.9583 11.1627 17.3683 10.6083 17.576 9.97307H19C19.2652 9.97307 19.5196 9.87055 19.7071 9.68806C19.8946 9.50558 20 9.25807 20 9C20 8.74193 19.8946 8.49442 19.7071 8.31194C19.5196 8.12945 19.2652 8.02693 19 8.02693ZM14.5 10.2163C14.2528 10.2163 14.0111 10.145 13.8055 10.0113C13.6 9.87769 13.4398 9.68773 13.3452 9.46547C13.2505 9.24321 13.2258 8.99865 13.274 8.7627C13.3222 8.52676 13.4413 8.31003 13.6161 8.13992C13.7909 7.96982 14.0137 7.85397 14.2561 7.80704C14.4986 7.76011 14.7499 7.78419 14.9784 7.87626C15.2068 7.96832 15.402 8.12422 15.5393 8.32424C15.6767 8.52427 15.75 8.75943 15.75 9C15.7495 9.32243 15.6176 9.63151 15.3833 9.85951C15.149 10.0875 14.8314 10.2158 14.5 10.2163Z" fill="#DEE2E6"/>
</svg>
