<svg width="266" height="80" viewBox="0 0 266 80" fill="none" xmlns="http://www.w3.org/2000/svg">
<rect width="80" height="80" rx="20" fill="#F58A07"/>
<path d="M38.1112 11.8978C39.5611 11.0586 41.38 11.5332 42.9223 11.8758C47.7641 13.3038 52.5004 15.0743 57.1841 16.9461C58.1249 17.3117 59.1073 17.7457 59.9219 18.3676C61.0926 19.2613 61.6052 20.7787 61.4763 22.2459C61.3639 23.5248 60.9763 24.7923 60.6243 26.0189C59.9505 28.1822 59.2328 30.3322 58.4968 32.4763C56.9658 36.9363 57.4778 41.6989 58.1092 46.372C58.1876 46.9519 58.2372 47.537 58.2517 48.1278C58.2517 53.4705 56.1823 58.8394 52.3467 62.6048C47.685 67.4775 40.4047 69.6083 33.8493 68.0881C27.896 66.8008 22.5929 62.6663 20.049 57.1128C18.353 53.5056 17.9488 49.4371 18.3574 45.5047C19.1747 39.4723 23.0322 34.0198 28.309 31.0321C29.0515 30.5488 30.0313 30.1929 30.3301 29.279C32.3292 24.0638 33.845 18.642 36.4284 13.6685C36.8108 12.9346 37.3995 12.324 38.1112 11.8978ZM38.1946 14.3587C37.3039 15.2283 38.6707 16.2872 39.7653 15.6943C41.0895 14.977 40.3726 13.2257 38.9942 13.8323C38.6908 13.9658 38.4173 14.1414 38.1946 14.3587ZM39.9829 18.6201C39.315 19.9765 38.706 21.3631 38.152 22.7722C37.0289 25.6285 39.3315 28.1798 42.2896 28.9979C43.0432 29.1232 43.7775 29.3085 44.493 29.5444C48.7458 30.9467 53.9717 29.7871 55.3651 25.5313C55.9142 23.7869 55.9802 21.4803 54.1744 20.4521C50.9407 18.8002 47.4213 17.7502 43.9372 16.7659C42.3423 16.2651 40.6683 17.1482 39.9829 18.6201ZM28.0542 34.3537C24.7458 36.8361 22.3249 40.5927 21.512 44.6568C20.8615 47.7222 25.3058 48.5146 27.2639 46.068C28.4222 44.6208 29.3215 42.8856 30.295 41.3836C31.4592 39.257 33.7571 38.0399 34.8336 35.8608C35.3081 34.9205 35.1851 33.532 34.1262 33.0488C32.0919 31.9416 29.8335 33.3431 28.0542 34.3537Z" fill="#1E1E1E"/>
<path d="M39.7653 15.6944C38.6707 16.2873 37.3039 15.2284 38.1947 14.3588C38.4173 14.1415 38.6908 13.966 38.9943 13.8324C40.3727 13.2258 41.0895 14.9771 39.7653 15.6944Z" fill="#1E1E1E"/>
<path d="M93.7773 19.2637V18.0044H93.2903L92.9273 18.3258L93.7773 19.2637ZM106.295 19.2637L107.145 18.3258L106.782 18.0044H106.295V19.2637ZM110.799 23.2552H112.073V22.6927L111.649 22.3173L110.799 23.2552ZM110.799 32.2794L110.124 33.3471L112.073 34.5526V32.2794H110.799ZM103.692 27.883H102.419V28.5807L103.017 28.9507L103.692 27.883ZM103.692 25.3377H104.966V24.0784H103.692V25.3377ZM96.3802 25.3377V24.0784H95.1071V25.3377H96.3802ZM96.3802 31.7588H95.1071V32.3703L95.5931 32.7485L96.3802 31.7588ZM110.799 42.9813H112.073V42.3698L111.587 41.9917L110.799 42.9813ZM110.799 56.7491L111.649 57.687L112.073 57.3117V56.7491H110.799ZM106.295 60.7407V62H106.782L107.145 61.6785L106.295 60.7407ZM93.7773 60.7407L92.9273 61.6785L93.2903 62H93.7773V60.7407ZM89.2732 56.7491H88V57.3117L88.4232 57.687L89.2732 56.7491ZM89.2732 47.7249L89.9488 46.6572L88 45.4517V47.7249H89.2732ZM96.3802 52.1213H97.6534V51.4237L97.0559 51.0537L96.3802 52.1213ZM96.3802 54.6667H95.1071V55.926H96.3802V54.6667ZM103.692 54.6667V55.926H104.966V54.6667H103.692ZM103.692 46.1051H104.966V45.4908L104.477 45.1126L103.692 46.1051ZM89.2732 34.9694H88V35.5838L88.4897 35.9619L89.2732 34.9694ZM89.2732 23.2552L88.4232 22.3173L88 22.6927V23.2552H89.2732ZM93.7773 20.523H106.295V18.0044H93.7773V20.523ZM105.445 20.2015L109.949 24.1931L111.649 22.3173L107.145 18.3258L105.445 20.2015ZM109.526 23.2552V32.2794H112.073V23.2552H109.526ZM111.475 31.2118L104.368 26.8153L103.017 28.9507L110.124 33.3471L111.475 31.2118ZM104.966 27.883V25.3377H102.419V27.883H104.966ZM103.692 24.0784H96.3802V26.597H103.692V24.0784ZM95.1071 25.3377V31.7588H97.6534V25.3377H95.1071ZM95.5931 32.7485L110.012 43.971L111.587 41.9917L97.1682 30.7692L95.5931 32.7485ZM109.526 42.9813V56.7491H112.073V42.9813H109.526ZM109.949 55.8113L105.445 59.8028L107.145 61.6785L111.649 57.687L109.949 55.8113ZM106.295 59.4813H93.7773V62H106.295V59.4813ZM94.6273 59.8028L90.1231 55.8113L88.4232 57.687L92.9273 61.6785L94.6273 59.8028ZM90.5463 56.7491V47.7249H88V56.7491H90.5463ZM88.5975 48.7926L95.7055 53.189L97.0559 51.0537L89.9488 46.6572L88.5975 48.7926ZM95.1071 52.1213V54.6667H97.6534V52.1213H95.1071ZM96.3802 55.926H103.692V53.4072H96.3802V55.926ZM104.966 54.6667V46.1051H102.419V54.6667H104.966ZM104.477 45.1126L90.0566 33.9768L88.4897 35.9619L102.909 47.0977L104.477 45.1126ZM90.5463 34.9694V23.2552H88V34.9694H90.5463ZM90.1231 24.1931L94.6273 20.2015L92.9273 18.3258L88.4232 22.3173L90.1231 24.1931ZM115.187 19.2637L115.191 18.0044L113.913 18V19.2637H115.187ZM132.18 19.3215L133.029 18.3833L132.668 18.0638L132.184 18.0622L132.18 19.3215ZM136.654 23.2841H137.928V22.7213L137.504 22.3459L136.654 23.2841ZM136.654 38.151L137.504 39.0892L137.928 38.7138V38.151H136.654ZM132.18 42.1136V43.373H132.667L133.029 43.0518L132.18 42.1136ZM122.996 42.1136L122.053 41.2674L120.121 43.373H122.996V42.1136ZM129.577 34.9405L130.519 35.7867L130.85 35.4267V34.9405H129.577ZM129.577 25.3667H130.85V24.1073H129.577V25.3667ZM122.265 25.3667V24.1073H120.991V25.3667H122.265ZM122.265 60.7407V62H123.538V60.7407H122.265ZM115.187 60.7407H113.913V62H115.187V60.7407ZM115.182 20.523L132.175 20.5809L132.184 18.0622L115.191 18.0044L115.182 20.523ZM131.33 20.2597L135.805 24.2223L137.504 22.3459L133.029 18.3833L131.33 20.2597ZM135.381 23.2841V38.151H137.928V23.2841H135.381ZM135.805 37.2128L131.33 41.1755L133.029 43.0518L137.504 39.0892L135.805 37.2128ZM132.18 40.8542H122.996V43.373H132.18V40.8542ZM123.939 42.9598L130.519 35.7867L128.633 34.0943L122.053 41.2674L123.939 42.9598ZM130.85 34.9405V25.3667H128.303V34.9405H130.85ZM129.577 24.1073H122.265V26.626H129.577V24.1073ZM120.991 25.3667V60.7407H123.538V25.3667H120.991ZM122.265 59.4813H115.187V62H122.265V59.4813ZM116.46 60.7407V19.2637H113.913V60.7407H116.46ZM145.546 19.2637V18.0044H145.059L144.696 18.3258L145.546 19.2637ZM158.064 19.2637L158.913 18.3258L158.551 18.0044H158.064V19.2637ZM162.568 23.2552H163.842V22.6927L163.418 22.3173L162.568 23.2552ZM162.568 56.7491L163.418 57.687L163.842 57.3117V56.7491H162.568ZM158.064 60.7407V62H158.551L158.913 61.6785L158.064 60.7407ZM145.546 60.7407L144.696 61.6785L145.059 62H145.546V60.7407ZM141.042 56.7491H139.768V57.3117L140.192 57.687L141.042 56.7491ZM141.042 23.2552L140.192 22.3173L139.768 22.6927V23.2552H141.042ZM148.149 25.3377V24.0784H146.875V25.3377H148.149ZM148.149 54.6667H146.875V55.926H148.149V54.6667ZM155.46 54.6667V55.926H156.735V54.6667H155.46ZM155.46 25.3377H156.735V24.0784H155.46V25.3377ZM145.546 20.523H158.064V18.0044H145.546V20.523ZM157.214 20.2015L161.718 24.1931L163.418 22.3173L158.913 18.3258L157.214 20.2015ZM161.294 23.2552V56.7491H163.842V23.2552H161.294ZM161.718 55.8113L157.214 59.8028L158.913 61.6785L163.418 57.687L161.718 55.8113ZM158.064 59.4813H145.546V62H158.064V59.4813ZM146.396 59.8028L141.891 55.8113L140.192 57.687L144.696 61.6785L146.396 59.8028ZM142.316 56.7491V23.2552H139.768V56.7491H142.316ZM141.891 24.1931L146.396 20.2015L144.696 18.3258L140.192 22.3173L141.891 24.1931ZM146.875 25.3377V54.6667H149.423V25.3377H146.875ZM148.149 55.926H155.46V53.4072H148.149V55.926ZM156.735 54.6667V25.3377H154.187V54.6667H156.735ZM155.46 24.0784H148.149V26.597H155.46V24.0784ZM172.542 19.2637V18.0044H171.968L171.588 18.4294L172.542 19.2637ZM189.272 19.2637L190.545 19.2695L190.551 18.0044H189.272V19.2637ZM189.242 25.5112V26.7706H190.51L190.515 25.5171L189.242 25.5112ZM182.457 25.5112V24.2519H181.183V25.5112H182.457ZM182.457 60.7407V62H183.73V60.7407H182.457ZM175.466 60.7407H174.193V62H175.466V60.7407ZM175.466 25.5112H176.739V24.2519H175.466V25.5112ZM166.955 25.5112L166.002 24.6771L164.129 26.7706H166.955V25.5112ZM172.542 20.523H189.272V18.0044H172.542V20.523ZM187.998 19.2578L187.969 25.5054L190.515 25.5171L190.545 19.2695L187.998 19.2578ZM189.242 24.2519H182.457V26.7706H189.242V24.2519ZM181.183 25.5112V60.7407H183.73V25.5112H181.183ZM182.457 59.4813H175.466V62H182.457V59.4813ZM176.739 60.7407V25.5112H174.193V60.7407H176.739ZM175.466 24.2519H166.955V26.7706H175.466V24.2519ZM167.909 26.3455L173.496 20.0979L171.588 18.4294L166.002 24.6771L167.909 26.3455ZM199.274 19.2637V18.0044H198.7L198.32 18.4294L199.274 19.2637ZM216.003 19.2637L217.278 19.2695L217.283 18.0044H216.003V19.2637ZM215.975 25.5112V26.7706H217.242L217.248 25.5171L215.975 25.5112ZM209.189 25.5112V24.2519H207.915V25.5112H209.189ZM209.189 60.7407V62H210.463V60.7407H209.189ZM202.199 60.7407H200.925V62H202.199V60.7407ZM202.199 25.5112H203.472V24.2519H202.199V25.5112ZM193.688 25.5112L192.733 24.6771L190.862 26.7706H193.688V25.5112ZM199.274 20.523H216.003V18.0044H199.274V20.523ZM214.73 19.2578L214.701 25.5054L217.248 25.5171L217.278 19.2695L214.73 19.2578ZM215.975 24.2519H209.189V26.7706H215.975V24.2519ZM207.915 25.5112V60.7407H210.463V25.5112H207.915ZM209.189 59.4813H202.199V62H209.189V59.4813ZM203.472 60.7407V25.5112H200.925V60.7407H203.472ZM202.199 24.2519H193.688V26.7706H202.199V24.2519ZM194.642 26.3455L200.228 20.0979L198.32 18.4294L192.733 24.6771L194.642 26.3455ZM220.42 19.2637V18.0044H219.146V19.2637H220.42ZM238.174 19.2637H239.447V18.0044H238.174V19.2637ZM238.174 25.5112V26.7706H239.447V25.5112H238.174ZM227.439 25.5112V24.2519H226.166V25.5112H227.439ZM227.439 36.5023H226.166V37.7618H227.439V36.5023ZM236.769 36.5023L237.716 37.3453L239.631 35.243H236.769V36.5023ZM231.184 42.6343V43.8936H231.75L232.13 43.4772L231.184 42.6343ZM227.439 42.6343V41.3749H226.166V42.6343H227.439ZM227.439 54.493H226.166V55.7525H227.439V54.493ZM238.349 54.493H239.622V53.2337H238.349V54.493ZM238.349 60.7407V62H239.622V60.7407H238.349ZM220.42 60.7407H219.146V62H220.42V60.7407ZM220.42 20.523H238.174V18.0044H220.42V20.523ZM236.9 19.2637V25.5112H239.447V19.2637H236.9ZM238.174 24.2519H227.439V26.7706H238.174V24.2519ZM226.166 25.5112V36.5023H228.713V25.5112H226.166ZM227.439 37.7618H236.769V35.243H227.439V37.7618ZM235.823 35.6594L230.237 41.7913L232.13 43.4772L237.716 37.3453L235.823 35.6594ZM231.184 41.3749H227.439V43.8936H231.184V41.3749ZM226.166 42.6343V54.493H228.713V42.6343H226.166ZM227.439 55.7525H238.349V53.2337H227.439V55.7525ZM237.076 54.493V60.7407H239.622V54.493H237.076ZM238.349 59.4813H220.42V62H238.349V59.4813ZM221.694 60.7407V19.2637H219.146V60.7407H221.694ZM242.765 19.2637L242.77 18.0044L241.492 18V19.2637H242.765ZM259.758 19.3215L260.608 18.3833L260.247 18.0638L259.763 18.0622L259.758 19.3215ZM264.234 23.2841H265.507V22.7213L265.083 22.3459L264.234 23.2841ZM264.234 36.3288L265.084 37.2658L265.507 36.8905V36.3288H264.234ZM257.915 41.94L257.065 41.0032L256.444 41.555L256.708 42.3383L257.915 41.94ZM264.234 60.6828V61.9422H266L265.441 60.2846L264.234 60.6828ZM257.185 60.6828L255.976 61.0816L256.268 61.9422H257.185V60.6828ZM250.223 40.06L249.353 39.1409L248.757 39.6929L249.016 40.4588L250.223 40.06ZM257.155 33.6389L258.026 34.558L258.428 34.1848V33.6389H257.155ZM257.155 25.3667H258.428V24.1073H257.155V25.3667ZM249.843 25.3667V24.1073H248.57V25.3667H249.843ZM249.843 60.7407V62H251.117V60.7407H249.843ZM242.765 60.7407H241.492V62H242.765V60.7407ZM242.761 20.523L259.754 20.5809L259.763 18.0622L242.77 18.0044L242.761 20.523ZM258.909 20.2597L263.384 24.2223L265.083 22.3459L260.608 18.3833L258.909 20.2597ZM262.96 23.2841V36.3288H265.507V23.2841H262.96ZM263.383 35.3919L257.065 41.0032L258.766 42.877L265.084 37.2658L263.383 35.3919ZM256.708 42.3383L263.025 61.0811L265.441 60.2846L259.124 41.5418L256.708 42.3383ZM264.234 59.4235H257.185V61.9422H264.234V59.4235ZM258.393 60.284L251.432 39.6613L249.016 40.4588L255.976 61.0816L258.393 60.284ZM251.094 40.9791L258.026 34.558L256.285 32.7198L249.353 39.1409L251.094 40.9791ZM258.428 33.6389V25.3667H255.882V33.6389H258.428ZM257.155 24.1073H249.843V26.626H257.155V24.1073ZM248.57 25.3667V60.7407H251.117V25.3667H248.57ZM249.843 59.4813H242.765V62H249.843V59.4813ZM244.039 60.7407V19.2637H241.492V60.7407H244.039Z" fill="#F58A07"/>
</svg>
