<svg width="296" height="195" viewBox="0 0 296 195" fill="none" xmlns="http://www.w3.org/2000/svg">
<path d="M0 51.1548C0 47.2033 3.2033 44 7.15476 44V44C11.1062 44 14.3095 47.2033 14.3095 51.1548L14.3095 162H0L0 51.1548Z" fill="#F58A07"/>
<path d="M14.3096 33.1548C14.3096 29.2033 17.5129 26 21.4643 26V26C25.4158 26 28.6191 29.2033 28.6191 33.1548L28.6191 162H14.3096L14.3096 33.1548Z" fill="#FCCF97"/>
<path d="M44.619 59C44.619 55.134 47.753 52 51.619 52V52C55.485 52 58.619 55.134 58.619 59L58.619 162H44.619L44.619 59Z" fill="#F58A07"/>
<path d="M58.619 59.1429C58.619 55.198 61.817 52 65.7619 52V52C69.7068 52 72.9047 55.198 72.9047 59.1429L72.9047 162H58.619L58.619 59.1429Z" fill="#FCCF97"/>
<path d="M88.9048 33.1548C88.9048 29.2033 92.1081 26 96.0595 26V26C100.011 26 103.214 29.2033 103.214 33.1548L103.214 162H88.9048L88.9048 33.1548Z" fill="#F58A07"/>
<path d="M103.214 59.1548C103.214 55.2033 106.418 52 110.369 52V52C114.321 52 117.524 55.2033 117.524 59.1548L117.524 162H103.214L103.214 59.1548Z" fill="#FCCF97"/>
<path d="M133.524 76.1548C133.524 72.2033 136.727 69 140.679 69V69C144.63 69 147.833 72.2033 147.833 76.1548L147.833 162H133.524L133.524 76.1548Z" fill="#F58A07"/>
<path d="M147.833 54.1548C147.833 50.2033 151.037 47 154.988 47V47C158.94 47 162.143 50.2033 162.143 54.1548L162.143 162H147.833L147.833 54.1548Z" fill="#FCCF97"/>
<path d="M222.762 28.1548C222.762 24.2033 225.965 21 229.917 21V21C233.868 21 237.071 24.2033 237.071 28.1548L237.071 162H222.762L222.762 28.1548Z" fill="#F58A07"/>
<path d="M237.072 41.1548C237.072 37.2033 240.275 34 244.226 34V34C248.178 34 251.381 37.2033 251.381 41.1548L251.381 162H237.072L237.072 41.1548Z" fill="#FCCF97"/>
<path d="M3.41911 189.5V179.318H4.65207V188.406H9.38502V189.5H3.41911ZM15.9475 186.378V181.864H17.1208V189.5H15.9475V188.207H15.868C15.689 188.595 15.4106 188.925 15.0327 189.197C14.6549 189.465 14.1776 189.599 13.6009 189.599C13.1237 189.599 12.6994 189.495 12.3282 189.286C11.957 189.074 11.6653 188.756 11.4532 188.332C11.2411 187.904 11.135 187.366 11.135 186.716V181.864H12.3083V186.636C12.3083 187.193 12.4641 187.637 12.7756 187.969C13.0905 188.3 13.4916 188.466 13.9788 188.466C14.2704 188.466 14.5671 188.391 14.8687 188.242C15.1736 188.093 15.4288 187.864 15.6343 187.556C15.8431 187.248 15.9475 186.855 15.9475 186.378ZM20.4431 184.906V189.5H19.2698V181.864H20.4033V183.057H20.5027C20.6817 182.669 20.9535 182.357 21.3181 182.122C21.6827 181.884 22.1533 181.764 22.73 181.764C23.2471 181.764 23.6995 181.87 24.0873 182.082C24.475 182.291 24.7767 182.609 24.9921 183.037C25.2075 183.461 25.3152 183.998 25.3152 184.648V189.5H24.1419V184.727C24.1419 184.127 23.9862 183.66 23.6746 183.325C23.3631 182.987 22.9355 182.818 22.3919 182.818C22.0174 182.818 21.6827 182.899 21.3877 183.062C21.096 183.224 20.8657 183.461 20.6966 183.773C20.5276 184.084 20.4431 184.462 20.4431 184.906Z" fill="#CED4DA"/>
<path d="M47.3138 179.318H48.7854L52.2456 187.77H52.3649L55.8251 179.318H57.2967V189.5H56.1433V181.764H56.0439L52.8621 189.5H51.7484L48.5666 181.764H48.4672V189.5H47.3138V179.318ZM61.8569 189.679C61.373 189.679 60.9339 189.588 60.5394 189.406C60.145 189.22 59.8318 188.953 59.5998 188.605C59.3678 188.254 59.2518 187.83 59.2518 187.332C59.2518 186.895 59.338 186.54 59.5103 186.268C59.6827 185.993 59.913 185.778 60.2014 185.622C60.4897 185.466 60.8079 185.35 61.1559 185.274C61.5072 185.195 61.8602 185.132 62.2149 185.085C62.6789 185.026 63.0551 184.981 63.3434 184.951C63.6351 184.918 63.8472 184.863 63.9798 184.787C64.1157 184.711 64.1836 184.578 64.1836 184.389V184.349C64.1836 183.859 64.0494 183.478 63.7809 183.206C63.5158 182.934 63.1131 182.798 62.5728 182.798C62.0127 182.798 61.5735 182.921 61.2553 183.166C60.9372 183.411 60.7134 183.673 60.5842 183.952L59.4705 183.554C59.6694 183.09 59.9346 182.729 60.266 182.47C60.6008 182.208 60.9653 182.026 61.3598 181.923C61.7575 181.817 62.1486 181.764 62.533 181.764C62.7783 181.764 63.06 181.794 63.3782 181.854C63.6997 181.91 64.0096 182.028 64.3079 182.207C64.6095 182.386 64.8598 182.656 65.0586 183.017C65.2575 183.378 65.3569 183.862 65.3569 184.469V189.5H64.1836V188.466H64.124C64.0444 188.632 63.9118 188.809 63.7262 188.998C63.5406 189.187 63.2937 189.348 62.9855 189.48C62.6772 189.613 62.301 189.679 61.8569 189.679ZM62.0359 188.625C62.4999 188.625 62.891 188.534 63.2092 188.352C63.5307 188.169 63.7726 187.934 63.935 187.646C64.1008 187.357 64.1836 187.054 64.1836 186.736V185.662C64.1339 185.722 64.0245 185.776 63.8555 185.826C63.6898 185.872 63.4975 185.914 63.2788 185.95C63.0634 185.983 62.8529 186.013 62.6474 186.04C62.4452 186.063 62.2812 186.083 62.1552 186.099C61.8503 186.139 61.5652 186.204 61.3001 186.293C61.0383 186.379 60.8261 186.51 60.6637 186.686C60.5046 186.858 60.4251 187.094 60.4251 187.392C60.4251 187.8 60.5759 188.108 60.8775 188.317C61.1824 188.522 61.5686 188.625 62.0359 188.625ZM67.4984 189.5V181.864H68.6319V183.017H68.7115C68.8507 182.639 69.1026 182.333 69.4672 182.097C69.8318 181.862 70.2427 181.744 70.7001 181.744C70.7863 181.744 70.894 181.746 71.0233 181.749C71.1525 181.753 71.2503 181.758 71.3166 181.764V182.957C71.2768 182.947 71.1857 182.933 71.0432 182.913C70.904 182.889 70.7565 182.878 70.6007 182.878C70.2295 182.878 69.898 182.956 69.6064 183.112C69.318 183.264 69.0893 183.476 68.9203 183.748C68.7546 184.016 68.6717 184.323 68.6717 184.668V189.5H67.4984Z" fill="#CED4DA"/>
<path d="M90.0942 179.318H91.5658L95.026 187.77H95.1453L98.6055 179.318H100.077V189.5H98.9237V181.764H98.8243L95.6425 189.5H94.5288L91.347 181.764H91.2476V189.5H90.0942V179.318ZM102.39 189.5V181.864H103.563V189.5H102.39ZM102.987 180.591C102.758 180.591 102.561 180.513 102.395 180.357C102.233 180.201 102.152 180.014 102.152 179.795C102.152 179.577 102.233 179.389 102.395 179.234C102.561 179.078 102.758 179 102.987 179C103.215 179 103.411 179.078 103.573 179.234C103.739 179.389 103.822 179.577 103.822 179.795C103.822 180.014 103.739 180.201 103.573 180.357C103.411 180.513 103.215 180.591 102.987 180.591ZM108.914 189.659C108.178 189.659 107.544 189.497 107.01 189.172C106.48 188.844 106.07 188.386 105.782 187.8C105.497 187.21 105.354 186.524 105.354 185.741C105.354 184.959 105.497 184.27 105.782 183.673C106.07 183.073 106.471 182.606 106.985 182.271C107.502 181.933 108.105 181.764 108.795 181.764C109.193 181.764 109.585 181.83 109.973 181.963C110.361 182.096 110.714 182.311 111.032 182.609C111.35 182.904 111.604 183.295 111.793 183.783C111.982 184.27 112.076 184.87 112.076 185.582V186.08H106.19V185.065H110.883C110.883 184.634 110.797 184.25 110.624 183.912C110.455 183.574 110.213 183.307 109.898 183.112C109.587 182.916 109.219 182.818 108.795 182.818C108.327 182.818 107.923 182.934 107.582 183.166C107.244 183.395 106.983 183.693 106.801 184.061C106.619 184.429 106.528 184.823 106.528 185.244V185.92C106.528 186.497 106.627 186.986 106.826 187.387C107.028 187.785 107.308 188.088 107.666 188.297C108.024 188.502 108.44 188.605 108.914 188.605C109.222 188.605 109.501 188.562 109.749 188.476C110.001 188.386 110.218 188.254 110.401 188.078C110.583 187.899 110.724 187.677 110.823 187.412L111.957 187.73C111.837 188.115 111.637 188.453 111.355 188.744C111.073 189.033 110.725 189.258 110.311 189.42C109.897 189.58 109.431 189.659 108.914 189.659ZM113.861 189.5V181.864H114.994V183.017H115.074C115.213 182.639 115.465 182.333 115.83 182.097C116.194 181.862 116.605 181.744 117.063 181.744C117.149 181.744 117.256 181.746 117.386 181.749C117.515 181.753 117.613 181.758 117.679 181.764V182.957C117.639 182.947 117.548 182.933 117.406 182.913C117.266 182.889 117.119 182.878 116.963 182.878C116.592 182.878 116.26 182.956 115.969 183.112C115.68 183.264 115.452 183.476 115.283 183.748C115.117 184.016 115.034 184.323 115.034 184.668V189.5H113.861Z" fill="#CED4DA"/>
<path d="M141.188 179.318H142.421V186.597C142.421 187.246 142.302 187.798 142.063 188.252C141.825 188.706 141.488 189.051 141.054 189.286C140.62 189.522 140.108 189.639 139.518 189.639C138.961 189.639 138.466 189.538 138.031 189.336C137.597 189.13 137.256 188.839 137.007 188.461C136.759 188.083 136.634 187.634 136.634 187.114H137.847C137.847 187.402 137.919 187.654 138.061 187.869C138.207 188.081 138.406 188.247 138.658 188.366C138.91 188.486 139.196 188.545 139.518 188.545C139.872 188.545 140.174 188.471 140.423 188.322C140.671 188.173 140.86 187.954 140.989 187.665C141.122 187.374 141.188 187.018 141.188 186.597V179.318ZM149.546 186.378V181.864H150.719V189.5H149.546V188.207H149.466C149.287 188.595 149.009 188.925 148.631 189.197C148.253 189.465 147.776 189.599 147.199 189.599C146.722 189.599 146.297 189.495 145.926 189.286C145.555 189.074 145.263 188.756 145.051 188.332C144.839 187.904 144.733 187.366 144.733 186.716V181.864H145.906V186.636C145.906 187.193 146.062 187.637 146.374 187.969C146.689 188.3 147.09 188.466 147.577 188.466C147.868 188.466 148.165 188.391 148.467 188.242C148.772 188.093 149.027 187.864 149.232 187.556C149.441 187.248 149.546 186.855 149.546 186.378ZM156.07 189.659C155.334 189.659 154.699 189.497 154.165 189.172C153.635 188.844 153.226 188.386 152.937 187.8C152.652 187.21 152.51 186.524 152.51 185.741C152.51 184.959 152.652 184.27 152.937 183.673C153.226 183.073 153.627 182.606 154.141 182.271C154.658 181.933 155.261 181.764 155.95 181.764C156.348 181.764 156.741 181.83 157.128 181.963C157.516 182.096 157.869 182.311 158.187 182.609C158.506 182.904 158.759 183.295 158.948 183.783C159.137 184.27 159.231 184.87 159.231 185.582V186.08H153.345V185.065H158.038C158.038 184.634 157.952 184.25 157.78 183.912C157.611 183.574 157.369 183.307 157.054 183.112C156.742 182.916 156.374 182.818 155.95 182.818C155.483 182.818 155.079 182.934 154.737 183.166C154.399 183.395 154.139 183.693 153.957 184.061C153.774 184.429 153.683 184.823 153.683 185.244V185.92C153.683 186.497 153.783 186.986 153.981 187.387C154.184 187.785 154.464 188.088 154.822 188.297C155.18 188.502 155.596 188.605 156.07 188.605C156.378 188.605 156.656 188.562 156.905 188.476C157.157 188.386 157.374 188.254 157.556 188.078C157.738 187.899 157.879 187.677 157.979 187.412L159.112 187.73C158.993 188.115 158.792 188.453 158.511 188.744C158.229 189.033 157.881 189.258 157.467 189.42C157.052 189.58 156.587 189.659 156.07 189.659Z" fill="#CED4DA"/>
<path d="M181.152 179.318L184.174 187.889H184.294L187.316 179.318H188.609L184.87 189.5H183.598L179.859 179.318H181.152ZM190.036 189.5V181.864H191.209V189.5H190.036ZM190.632 180.591C190.404 180.591 190.207 180.513 190.041 180.357C189.878 180.201 189.797 180.014 189.797 179.795C189.797 179.577 189.878 179.389 190.041 179.234C190.207 179.078 190.404 179 190.632 179C190.861 179 191.057 179.078 191.219 179.234C191.385 179.389 191.468 179.577 191.468 179.795C191.468 180.014 191.385 180.201 191.219 180.357C191.057 180.513 190.861 180.591 190.632 180.591ZM196.56 189.659C195.824 189.659 195.189 189.497 194.656 189.172C194.125 188.844 193.716 188.386 193.428 187.8C193.143 187.21 193 186.524 193 185.741C193 184.959 193.143 184.27 193.428 183.673C193.716 183.073 194.117 182.606 194.631 182.271C195.148 181.933 195.751 181.764 196.441 181.764C196.838 181.764 197.231 181.83 197.619 181.963C198.007 182.096 198.36 182.311 198.678 182.609C198.996 182.904 199.25 183.295 199.438 183.783C199.627 184.27 199.722 184.87 199.722 185.582V186.08H193.835V185.065H198.529C198.529 184.634 198.442 184.25 198.27 183.912C198.101 183.574 197.859 183.307 197.544 183.112C197.233 182.916 196.865 182.818 196.441 182.818C195.973 182.818 195.569 182.934 195.227 183.166C194.889 183.395 194.629 183.693 194.447 184.061C194.265 184.429 194.174 184.823 194.174 185.244V185.92C194.174 186.497 194.273 186.986 194.472 187.387C194.674 187.785 194.954 188.088 195.312 188.297C195.67 188.502 196.086 188.605 196.56 188.605C196.868 188.605 197.147 188.562 197.395 188.476C197.647 188.386 197.864 188.254 198.046 188.078C198.229 187.899 198.37 187.677 198.469 187.412L199.602 187.73C199.483 188.115 199.283 188.453 199.001 188.744C198.719 189.033 198.371 189.258 197.957 189.42C197.543 189.58 197.077 189.659 196.56 189.659ZM201.507 189.5V181.864H202.64V183.017H202.72C202.859 182.639 203.111 182.333 203.475 182.097C203.84 181.862 204.251 181.744 204.708 181.744C204.794 181.744 204.902 181.746 205.031 181.749C205.161 181.753 205.258 181.758 205.325 181.764V182.957C205.285 182.947 205.194 182.933 205.051 182.913C204.912 182.889 204.765 182.878 204.609 182.878C204.238 182.878 203.906 182.956 203.615 183.112C203.326 183.264 203.098 183.476 202.928 183.748C202.763 184.016 202.68 184.323 202.68 184.668V189.5H201.507Z" fill="#CED4DA"/>
<path d="M231.188 181.864C231.129 181.36 230.887 180.969 230.462 180.69C230.038 180.412 229.518 180.273 228.901 180.273C228.451 180.273 228.056 180.346 227.718 180.491C227.383 180.637 227.121 180.838 226.933 181.093C226.747 181.348 226.654 181.638 226.654 181.963C226.654 182.235 226.719 182.469 226.848 182.664C226.981 182.856 227.15 183.017 227.355 183.146C227.561 183.272 227.776 183.377 228.001 183.46C228.227 183.539 228.434 183.604 228.623 183.653L229.657 183.932C229.922 184.001 230.217 184.098 230.542 184.22C230.87 184.343 231.183 184.51 231.482 184.722C231.783 184.931 232.032 185.2 232.227 185.528C232.423 185.856 232.521 186.259 232.521 186.736C232.521 187.286 232.376 187.783 232.088 188.227C231.803 188.671 231.385 189.024 230.835 189.286C230.288 189.548 229.624 189.679 228.842 189.679C228.112 189.679 227.481 189.561 226.947 189.326C226.417 189.091 226 188.763 225.695 188.342C225.393 187.921 225.222 187.432 225.183 186.875H226.455C226.488 187.259 226.618 187.578 226.843 187.83C227.072 188.078 227.36 188.264 227.708 188.386C228.059 188.506 228.437 188.565 228.842 188.565C229.312 188.565 229.735 188.489 230.109 188.337C230.484 188.181 230.781 187.965 230.999 187.69C231.218 187.412 231.327 187.087 231.327 186.716C231.327 186.378 231.233 186.103 231.044 185.891C230.855 185.679 230.607 185.506 230.298 185.374C229.99 185.241 229.657 185.125 229.299 185.026L228.046 184.668C227.251 184.439 226.621 184.112 226.157 183.688C225.693 183.264 225.461 182.709 225.461 182.023C225.461 181.453 225.615 180.955 225.923 180.531C226.235 180.104 226.652 179.772 227.176 179.537C227.703 179.298 228.291 179.179 228.941 179.179C229.597 179.179 230.181 179.297 230.691 179.532C231.201 179.764 231.606 180.082 231.904 180.487C232.206 180.891 232.365 181.35 232.381 181.864H231.188ZM236.636 189.679C236.152 189.679 235.713 189.588 235.318 189.406C234.924 189.22 234.611 188.953 234.379 188.605C234.147 188.254 234.031 187.83 234.031 187.332C234.031 186.895 234.117 186.54 234.289 186.268C234.462 185.993 234.692 185.778 234.98 185.622C235.269 185.466 235.587 185.35 235.935 185.274C236.286 185.195 236.639 185.132 236.994 185.085C237.458 185.026 237.834 184.981 238.122 184.951C238.414 184.918 238.626 184.863 238.759 184.787C238.895 184.711 238.963 184.578 238.963 184.389V184.349C238.963 183.859 238.828 183.478 238.56 183.206C238.295 182.934 237.892 182.798 237.352 182.798C236.792 182.798 236.352 182.921 236.034 183.166C235.716 183.411 235.492 183.673 235.363 183.952L234.249 183.554C234.448 183.09 234.713 182.729 235.045 182.47C235.38 182.208 235.744 182.026 236.139 181.923C236.536 181.817 236.928 181.764 237.312 181.764C237.557 181.764 237.839 181.794 238.157 181.854C238.479 181.91 238.789 182.028 239.087 182.207C239.388 182.386 239.639 182.656 239.838 183.017C240.036 183.378 240.136 183.862 240.136 184.469V189.5H238.963V188.466H238.903C238.823 188.632 238.691 188.809 238.505 188.998C238.32 189.187 238.073 189.348 237.764 189.48C237.456 189.613 237.08 189.679 236.636 189.679ZM236.815 188.625C237.279 188.625 237.67 188.534 237.988 188.352C238.31 188.169 238.552 187.934 238.714 187.646C238.88 187.357 238.963 187.054 238.963 186.736V185.662C238.913 185.722 238.803 185.776 238.634 185.826C238.469 185.872 238.276 185.914 238.058 185.95C237.842 185.983 237.632 186.013 237.426 186.04C237.224 186.063 237.06 186.083 236.934 186.099C236.629 186.139 236.344 186.204 236.079 186.293C235.817 186.379 235.605 186.51 235.443 186.686C235.284 186.858 235.204 187.094 235.204 187.392C235.204 187.8 235.355 188.108 235.656 188.317C235.961 188.522 236.347 188.625 236.815 188.625ZM242.436 189.5V179.318H243.61V183.077H243.709C243.795 182.944 243.915 182.775 244.067 182.57C244.223 182.361 244.445 182.175 244.733 182.013C245.025 181.847 245.419 181.764 245.917 181.764C246.56 181.764 247.126 181.925 247.617 182.246C248.107 182.568 248.49 183.024 248.765 183.614C249.04 184.204 249.178 184.9 249.178 185.702C249.178 186.51 249.04 187.211 248.765 187.805C248.49 188.395 248.109 188.852 247.622 189.177C247.135 189.498 246.573 189.659 245.936 189.659C245.446 189.659 245.053 189.578 244.758 189.415C244.463 189.25 244.236 189.062 244.077 188.854C243.918 188.642 243.795 188.466 243.709 188.327H243.57V189.5H242.436ZM243.59 185.682C243.59 186.259 243.674 186.767 243.843 187.208C244.012 187.646 244.259 187.989 244.584 188.237C244.909 188.482 245.307 188.605 245.777 188.605C246.268 188.605 246.677 188.476 247.005 188.217C247.337 187.955 247.585 187.604 247.751 187.163C247.92 186.719 248.005 186.225 248.005 185.682C248.005 185.145 247.922 184.661 247.756 184.23C247.594 183.796 247.347 183.453 247.015 183.201C246.687 182.946 246.275 182.818 245.777 182.818C245.3 182.818 244.899 182.939 244.574 183.181C244.249 183.42 244.004 183.754 243.838 184.185C243.673 184.613 243.59 185.112 243.59 185.682Z" fill="#CED4DA"/>
<path d="M270.797 189.5H267.655V179.318H270.937C271.924 179.318 272.769 179.522 273.472 179.93C274.175 180.334 274.713 180.916 275.088 181.675C275.462 182.43 275.65 183.335 275.65 184.389C275.65 185.45 275.461 186.363 275.083 187.129C274.705 187.891 274.155 188.478 273.432 188.888C272.71 189.296 271.831 189.5 270.797 189.5ZM268.888 188.406H270.718C271.56 188.406 272.257 188.244 272.811 187.919C273.364 187.594 273.777 187.132 274.049 186.532C274.321 185.932 274.456 185.218 274.456 184.389C274.456 183.567 274.322 182.86 274.054 182.266C273.785 181.67 273.384 181.212 272.851 180.894C272.317 180.573 271.652 180.412 270.857 180.412H268.888V188.406ZM280.661 189.659C279.972 189.659 279.367 189.495 278.846 189.167C278.329 188.839 277.925 188.38 277.633 187.79C277.345 187.2 277.201 186.51 277.201 185.722C277.201 184.926 277.345 184.232 277.633 183.638C277.925 183.045 278.329 182.585 278.846 182.256C279.367 181.928 279.972 181.764 280.661 181.764C281.35 181.764 281.954 181.928 282.471 182.256C282.991 182.585 283.395 183.045 283.684 183.638C283.975 184.232 284.121 184.926 284.121 185.722C284.121 186.51 283.975 187.2 283.684 187.79C283.395 188.38 282.991 188.839 282.471 189.167C281.954 189.495 281.35 189.659 280.661 189.659ZM280.661 188.605C281.185 188.605 281.616 188.471 281.954 188.202C282.292 187.934 282.542 187.581 282.704 187.143C282.867 186.706 282.948 186.232 282.948 185.722C282.948 185.211 282.867 184.736 282.704 184.295C282.542 183.854 282.292 183.498 281.954 183.226C281.616 182.954 281.185 182.818 280.661 182.818C280.137 182.818 279.706 182.954 279.368 183.226C279.03 183.498 278.78 183.854 278.618 184.295C278.455 184.736 278.374 185.211 278.374 185.722C278.374 186.232 278.455 186.706 278.618 187.143C278.78 187.581 279.03 187.934 279.368 188.202C279.706 188.471 280.137 188.605 280.661 188.605ZM285.912 189.5V181.864H287.046V183.057H287.145C287.304 182.649 287.561 182.333 287.916 182.107C288.27 181.879 288.696 181.764 289.193 181.764C289.697 181.764 290.117 181.879 290.451 182.107C290.789 182.333 291.053 182.649 291.242 183.057H291.321C291.517 182.662 291.81 182.349 292.201 182.117C292.592 181.882 293.061 181.764 293.608 181.764C294.291 181.764 294.85 181.978 295.284 182.406C295.718 182.83 295.935 183.491 295.935 184.389V189.5H294.762V184.389C294.762 183.826 294.608 183.423 294.299 183.181C293.991 182.939 293.628 182.818 293.211 182.818C292.674 182.818 292.258 182.981 291.963 183.305C291.668 183.627 291.52 184.035 291.52 184.528V189.5H290.327V184.27C290.327 183.836 290.186 183.486 289.904 183.221C289.623 182.952 289.26 182.818 288.816 182.818C288.511 182.818 288.226 182.899 287.961 183.062C287.699 183.224 287.487 183.45 287.324 183.738C287.165 184.023 287.086 184.353 287.086 184.727V189.5H285.912Z" fill="#CED4DA"/>
</svg>
